<svg xmlns:mydata="http://www.w3.org/2000/svg" mydata:contrastcolor="ffffff" mydata:template="Default" mydata:presentation="2.5" mydata:layouttype="undefined" mydata:specialfontid="undefined" mydata:id1="088" mydata:id2="657" mydata:companyname="HTML" mydata:companytagline="" version="1.1" xmlns="http://www.w3.org/2000/svg" xmlns:xlink="http://www.w3.org/1999/xlink" viewBox="100.55078281814531 189.4793291175409 348.8984343637094 91.04134176491814"><g fill="#222223" fill-rule="nonzero" stroke="none" stroke-width="1" stroke-linecap="butt" stroke-linejoin="miter" stroke-miterlimit="10" stroke-dasharray="" stroke-dashoffset="0" font-family="none" font-weight="none" font-size="none" text-anchor="none" style="mix-blend-mode: normal"><g data-paper-data="{&quot;isGlobalGroup&quot;:true,&quot;bounds&quot;:{&quot;x&quot;:100.55078281814531,&quot;y&quot;:189.4793291175409,&quot;width&quot;:348.8984343637094,&quot;height&quot;:91.04134176491814}}"><g data-paper-data="{&quot;isPrimaryText&quot;:true}"><path d="M122.8209,225.05548v-33.19507h-22.27011v88.66026h22.27011v-33.19507h34.45565v33.19507h22.27011v-88.66026h-22.27011v33.19507z" data-paper-data="{&quot;glyphName&quot;:&quot;h&quot;,&quot;glyphIndex&quot;:0,&quot;firstGlyphOfWord&quot;:true,&quot;word&quot;:1}" style="fill: rgb(0, 0, 0);"></path><path d="M214.42249,205.02639l-4.6221,-13.16598h-23.25056l22.97043,65.96996c4.20191,12.18553 16.80763,22.6903 29.97361,22.6903h14.00636v-21.98999h-14.00636c-5.46248,0 -7.56343,-3.22146 -9.38426,-8.12369l-7.98363,-23.11049h15.82719v-22.27011z" data-paper-data="{&quot;glyphName&quot;:&quot;t&quot;,&quot;glyphIndex&quot;:1,&quot;word&quot;:1}" style="fill: rgb(0, 0, 0);"></path><path d="M346.7826,189.47933c-9.66439,0 -18.4884,3.92178 -25.07138,10.22464c-6.44293,-6.30286 -15.26693,-10.22464 -25.07138,-10.22464c-19.88903,0 -36.13641,16.24738 -36.13641,36.27647v54.76487h22.27011v-54.76487c0,-7.7035 6.1628,-14.00636 13.8663,-14.00636c7.7035,0 14.00636,6.30286 14.00636,14.00636v54.76487h22.27011v-54.76487c0,-7.7035 6.1628,-14.00636 13.8663,-14.00636c7.7035,0 14.00636,6.30286 14.00636,14.00636v54.76487h22.27011v-54.76487c0,-20.0291 -16.24738,-36.27647 -36.27647,-36.27647z" data-paper-data="{&quot;glyphName&quot;:&quot;m&quot;,&quot;glyphIndex&quot;:2,&quot;word&quot;:1}" style="fill: rgb(0, 0, 0);"></path><path d="M405.74937,191.86041h-23.25056l22.97043,65.96996c4.20191,12.18553 16.80763,22.6903 29.97361,22.6903h14.00636v-21.98999h-14.00636c-5.46248,0 -7.56343,-3.22146 -9.38426,-8.12369z" data-paper-data="{&quot;glyphName&quot;:&quot;l&quot;,&quot;glyphIndex&quot;:3,&quot;lastGlyphOfWord&quot;:true,&quot;word&quot;:1}" style="fill: rgb(0, 0, 0);"></path></g></g></g></svg>