<svg xmlns:mydata="http://www.w3.org/2000/svg" mydata:contrastcolor="ffffff" mydata:template="Default" mydata:presentation="2.5" mydata:layouttype="undefined" mydata:specialfontid="undefined" mydata:id1="764" mydata:id2="147" mydata:companyname="HTML" mydata:companytagline="" version="1.1" xmlns="http://www.w3.org/2000/svg" xmlns:xlink="http://www.w3.org/1999/xlink" viewBox="115.20796460176992 187.59435612290184 319.58407079646014 94.81128775419637"><g fill="#101820" fill-rule="nonzero" stroke="none" stroke-width="1" stroke-linecap="butt" stroke-linejoin="miter" stroke-miterlimit="10" stroke-dasharray="" stroke-dashoffset="0" font-family="none" font-weight="none" font-size="none" text-anchor="none" style="mix-blend-mode: normal"><g data-paper-data="{&quot;isGlobalGroup&quot;:true,&quot;bounds&quot;:{&quot;x&quot;:115.20796460176992,&quot;y&quot;:187.59435612290184,&quot;width&quot;:319.58407079646014,&quot;height&quot;:94.81128775419637}}"><g data-paper-data="{&quot;isPrimaryText&quot;:true}"><path d="M179.448,269.34216v-14.00621h17.50777v14.00621zM115.61199,206.58355c0.17957,-0.17957 1.93034,-0.26935 5.25233,-0.26935h3.36688l8.21518,0.26935c0.08978,1.34675 0.13468,3.36688 0.13468,6.06038c0,2.6935 0.04489,4.71363 0.13468,6.06038h-17.50777v-5.79103c0,-3.95047 0.13468,-6.06038 0.40403,-6.32973zM179.448,229.34364v-41.74929h17.50777v56.96758l-5.79103,0.13468c-11.67184,0 -22.35607,-0.04489 -32.05268,-0.13468l-26.39632,-0.13468v37.43968h-17.50777v-52.5233z" data-paper-data="{&quot;glyphName&quot;:&quot;H&quot;,&quot;glyphIndex&quot;:0,&quot;firstGlyphOfWord&quot;:true,&quot;word&quot;:1}" style="fill: rgb(255, 255, 255);"></path><path d="M210.42328,281.86694v-94.27259h47.40564v13.60219h-6.46441c-5.20744,0 -10.19042,0.13468 -14.94894,0.40403l-8.48453,0.26935v79.99702z" data-paper-data="{&quot;glyphName&quot;:&quot;T&quot;,&quot;glyphIndex&quot;:1,&quot;word&quot;:1}" style="fill: rgb(255, 255, 255);"></path><path d="M272.50851,199.58044l0.26935,-11.98609h25.04957l10.10063,30.03255c1.6161,4.8483 3.32199,9.94351 5.11765,15.28563c1.79567,5.34211 3.27709,9.76395 4.44428,13.2655c1.16718,3.50155 1.84056,5.47679 2.02013,5.92571c0.98762,2.87307 1.52632,4.3096 1.6161,4.3096c0.26935,0 3.09753,-8.03562 8.48453,-24.10685c4.66874,-13.91643 8.52942,-25.31892 11.58206,-34.20748l3.50155,-10.10063l7.40713,-0.26935h3.50155c2.60372,0 3.90558,0.22446 3.90558,0.67338c0,0.80805 -4.80341,15.98145 -14.41024,45.52019c-0.89783,2.87307 -2.78329,8.77633 -5.65636,17.70978c-2.87307,8.93345 -5.11765,15.82433 -6.73376,20.67263c-2.06502,6.19506 -3.09753,9.47215 -3.09753,9.83128c0,0.17957 -2.64861,0.26935 -7.94583,0.26935c-5.20744,0 -7.90094,-0.26935 -8.08051,-0.80805c-1.6161,-5.65636 -8.70899,-26.44122 -21.27867,-62.35458l-3.36688,-9.29258l0.40403,6.19506c0.17957,5.02787 0.35913,17.10374 0.5387,36.22761l0.40403,30.03255h-18.18114v-35.41956c0,-25.04957 0.13468,-40.85145 0.40403,-47.40564z" data-paper-data="{&quot;glyphName&quot;:&quot;M&quot;,&quot;glyphIndex&quot;:2,&quot;word&quot;:1}" style="fill: rgb(255, 255, 255);"></path><path d="M373.7842,271.09293c0,-2.78329 0.04489,-4.21982 0.13468,-4.3096c0.08978,-0.08978 10.2802,-0.13468 30.57125,-0.13468h30.3019v15.21829h-60.73848l-0.26935,-7.40713zM373.91888,256.54802v-68.95366h17.50777v68.28029h-3.2322c-2.87307,0 -5.79103,0.13468 -8.75388,0.40403z" data-paper-data="{&quot;glyphName&quot;:&quot;L&quot;,&quot;glyphIndex&quot;:3,&quot;lastGlyphOfWord&quot;:true,&quot;word&quot;:1}" style="fill: rgb(255, 255, 255);"></path></g></g></g></svg>